HIERARCHY
ROOT Hips
{
	OFFSET -0.001795 -0.223333 0.028219
	CHANNELS 6 Xposition Yposition Zposition Zrotation Yrotation Xrotation 
	JOINT LeftUpLeg
	{
		OFFSET 0.069520 -0.091406 -0.006815
		CHANNELS 3 Zrotation Yrotation Xrotation
		JOINT LeftLeg
		{
			OFFSET 0.034277 -0.375199 -0.004496
			CHANNELS 3 Zrotation Yrotation Xrotation
			JOINT LeftFoot
			{
				OFFSET -0.013596 -0.397961 -0.043693
				CHANNELS 3 Zrotation Yrotation Xrotation
				JOINT LeftToe
				{
					OFFSET 0.026358 -0.055791 0.119288
					CHANNELS 3 Zrotation Yrotation Xrotation
					End Site
					{
						OFFSET 0.000000 0.000000 0.000000
					}
				}
			}
		}
	}
	JOINT RightUpLeg
	{
		OFFSET -0.067670 -0.090522 -0.004320
		CHANNELS 3 Zrotation Yrotation Xrotation
		JOINT RightLeg
		{
			OFFSET -0.038290 -0.382569 -0.008850
			CHANNELS 3 Zrotation Yrotation Xrotation
			JOINT RightFoot
			{
				OFFSET 0.015774 -0.398415 -0.042312
				CHANNELS 3 Zrotation Yrotation Xrotation
				JOINT RightToe
				{
					OFFSET -0.025372 -0.048144 0.123348
					CHANNELS 3 Zrotation Yrotation Xrotation
					End Site
					{
						OFFSET 0.000000 0.000000 0.000000
					}
				}
			}
		}
	}
	JOINT Spine
	{
		OFFSET -0.002533 0.108963 -0.026696
		CHANNELS 3 Zrotation Yrotation Xrotation
		JOINT Spine1
		{
			OFFSET 0.005487 0.135180 0.001092
			CHANNELS 3 Zrotation Yrotation Xrotation
			JOINT Spine2
			{
				OFFSET 0.001457 0.052922 0.025425
				CHANNELS 3 Zrotation Yrotation Xrotation
				JOINT Neck
				{
					OFFSET -0.002778 0.213870 -0.042857
					CHANNELS 3 Zrotation Yrotation Xrotation
					JOINT Head
					{
						OFFSET 0.005152 0.064970 0.051349
						CHANNELS 3 Zrotation Yrotation Xrotation
						End Site
						{
							OFFSET 0.000000 0.000000 0.000000
						}
					}
				}
				JOINT LeftShoulder
				{
					OFFSET 0.078845 0.121749 -0.034090
					CHANNELS 3 Zrotation Yrotation Xrotation
					JOINT LeftArm
					{
						OFFSET 0.090977 0.030469 -0.008868
						CHANNELS 3 Zrotation Yrotation Xrotation
						JOINT LeftForeArm
						{
							OFFSET 0.259612 -0.012772 -0.027456
							CHANNELS 3 Zrotation Yrotation Xrotation
							JOINT LeftHand
							{
								OFFSET 0.249234 0.008986 -0.001171
								CHANNELS 3 Zrotation Yrotation Xrotation
								End Site
								{
									OFFSET 0.000000 0.000000 0.000000
								}
							}
						}
					}
				}
				JOINT RightShoulder
				{
					OFFSET -0.081759 0.118833 -0.038615
					CHANNELS 3 Zrotation Yrotation Xrotation
					JOINT RightArm
					{
						OFFSET -0.096012 0.032551 -0.009143
						CHANNELS 3 Zrotation Yrotation Xrotation
						JOINT RightForeArm
						{
							OFFSET -0.253742 -0.013329 -0.021401
							CHANNELS 3 Zrotation Yrotation Xrotation
							JOINT RightHand
							{
								OFFSET -0.255298 0.007772 -0.005559
								CHANNELS 3 Zrotation Yrotation Xrotation
								End Site
								{
									OFFSET 0.000000 0.000000 0.000000
								}
							}
						}
					}
				}
			}
		}
	}
}
MOTION
Frames: 6
Frame Time: 0.050000
0.000000 0.933387 0.000000 -2.848362 5.395935 -3.033914 5.709372 0.060629 5.109078 -5.782161 0.517660 -2.313875 6.982064 14.804129 3.786308 0.000000 0.000000 0.000000 1.465623 0.674570 -6.032290 7.683897 -1.323540 10.083214 -8.882467 -21.619758 3.851092 0.000000 0.000000 0.000000 -2.825934 -0.420399 16.359325 4.826529 -0.684610 -20.948902 -1.185913 -1.915431 26.087946 2.047120 1.093439 -32.757134 0.000000 0.000000 0.000000 -33.899072 -10.084658 4.112681 -44.547914 -11.314447 -3.091213 -5.285984 -20.533941 1.818322 0.000000 0.000000 0.000000 26.341240 14.856260 8.260780 51.025092 11.501277 -2.594238 2.689384 23.069441 1.441011 0.000000 0.000000 0.000000 
-0.002246 0.931762 0.002807 -3.217019 5.147380 -2.700276 6.210482 0.038861 5.569378 -5.335435 0.467019 -3.719759 6.830743 14.283691 2.433020 0.000000 0.000000 0.000000 1.922198 0.775952 -6.749131 8.128061 -1.465201 11.234698 -8.834298 -21.619833 2.727845 0.000000 0.000000 0.000000 -2.211824 -0.502054 16.378952 4.623837 -0.701862 -19.830820 -0.495447 -2.051537 24.307840 1.766530 1.326752 -34.388592 0.000000 0.000000 0.000000 -33.329069 -8.364565 2.950946 -45.533874 -10.778692 -3.226756 -7.466669 -21.047180 2.277374 0.000000 0.000000 0.000000 25.019618 14.845371 7.906695 51.842782 10.947147 -2.597549 3.110318 24.931408 1.656121 0.000000 0.000000 0.000000 
-0.004911 0.930844 0.006250 -3.417999 6.246357 -2.577004 6.672638 -0.024092 5.602570 -5.531068 0.466402 -3.483186 7.171494 14.915704 2.746596 0.000000 0.000000 0.000000 2.928508 0.927978 -7.565680 7.855812 -1.467616 11.588702 -9.794194 -23.588307 3.831109 0.000000 0.000000 0.000000 -1.562682 -0.652088 16.997116 4.541081 -0.599917 -20.662269 -0.178723 -1.983108 24.317460 0.504897 2.050873 -34.774897 0.000000 0.000000 0.000000 -33.547474 -8.510841 2.710182 -46.101619 -9.925211 -3.468971 -6.004995 -19.954285 1.886766 0.000000 0.000000 0.000000 24.359418 14.546223 7.906028 52.249814 10.006935 -3.058022 2.823043 24.841920 1.603939 0.000000 0.000000 0.000000 
-0.008392 0.929818 0.011048 -3.796747 6.063102 -3.341604 7.220885 -0.037381 6.596289 -5.308185 0.462278 -3.108327 7.604015 15.486377 1.602538 0.000000 0.000000 0.000000 3.503262 0.888999 -6.949251 8.155826 -1.532586 11.547061 -9.922471 -23.846416 3.946629 0.000000 0.000000 0.000000 -1.309527 -0.743571 18.003819 5.172540 -0.765769 -21.038620 0.028502 -1.202601 24.129773 0.314334 2.334178 -36.506423 0.000000 0.000000 0.000000 -33.788548 -8.234903 2.163638 -46.010732 -8.712201 -3.779428 -8.159803 -20.428437 2.298716 0.000000 0.000000 0.000000 24.326196 15.133074 8.460043 51.202859 9.342997 -3.338607 3.942369 25.713736 1.902536 0.000000 0.000000 0.000000 
-0.012770 0.928494 0.017059 -3.871800 6.692347 -3.725464 7.598547 -0.079298 6.914022 -5.069818 0.453020 -2.048890 7.458454 15.108368 1.225967 0.000000 0.000000 0.000000 4.127365 0.890899 -6.670122 7.861484 -1.466973 11.044191 -10.214219 -24.430534 4.294050 0.000000 0.000000 0.000000 -0.946028 -0.825931 18.117569 5.425580 -0.874045 -20.325357 0.030833 -0.997453 23.321648 -0.076712 2.581110 -36.018922 0.000000 0.000000 0.000000 -33.516247 -8.185374 1.821133 -45.840986 -7.406170 -4.085123 -9.299661 -21.603816 2.633187 0.000000 0.000000 0.000000 23.834201 14.620257 8.229218 50.652197 8.692973 -3.535250 5.280997 26.018378 2.213576 0.000000 0.000000 0.000000 
-0.017981 0.927162 0.024242 -3.965178 7.213755 -3.763622 8.307034 -0.159122 6.954340 -5.344847 0.484774 -0.617858 7.441841 14.791546 -0.009397 0.000000 0.000000 0.000000 4.574467 0.816770 -5.936116 8.211391 -1.532032 10.319254 -10.236537 -24.581843 3.953829 0.000000 0.000000 0.000000 -0.523996 -0.894286 17.912201 5.195496 -0.750118 -21.032142 0.621934 -0.759752 23.983247 -1.311843 3.243861 -36.789222 0.000000 0.000000 0.000000 -33.607068 -8.160029 1.563105 -45.910585 -6.839024 -4.277183 -10.422319 -22.420318 2.952180 0.000000 0.000000 0.000000 23.771792 14.515503 8.373713 49.569248 7.654569 -4.023574 6.341707 26.330803 2.480890 0.000000 0.000000 0.000000 
